<svg width="800" height="800" viewBox="0 0 800 800" fill="none" xmlns="http://www.w3.org/2000/svg">
<path fill-rule="evenodd" clip-rule="evenodd" d="M507.054 440.426C513.872 424.977 517.68 407.783 517.68 400.046C517.68 332.983 465.577 278.609 401.314 278.609C337.054 278.609 284.952 332.983 284.952 400.046C284.952 467.106 343.134 511.103 401.314 511.103C438.532 511.103 471.657 492.9 492.906 464.557C498.474 457.146 503.249 449.051 507.054 440.426ZM401.314 450.386C415.86 450.386 429.157 444.811 439.383 435.591C451.714 424.474 457.143 408.02 457.143 400.046C457.143 366.514 433.474 339.326 401.314 339.326C369.157 339.326 342.857 366.469 342.857 400C342.857 423.154 369.157 450.386 401.314 450.386Z" fill="#990E0E"/>
<path fill-rule="evenodd" clip-rule="evenodd" d="M31.2033 407.783C31.6579 408.374 30.7487 407.22 31.2033 407.783C27.6467 402.917 27.7362 397.131 31.2193 392.209C31.4744 391.849 31.7344 391.474 31.9979 391.091C136.6 238.377 266.316 157.143 400.406 157.143C534.357 157.143 663.957 238.158 768.446 390.566C770.428 393.457 771.428 396.429 771.428 399.986C771.428 403.717 770.266 406.854 768.18 409.889C663.72 562.006 534.234 642.857 400.406 642.857C265.975 642.857 135.919 561.237 31.2033 407.783ZM112.545 381.5C103.946 392.191 103.946 407.777 112.545 418.471C202.119 529.837 302.977 582.14 400.406 582.14C497.837 582.14 598.694 529.837 688.268 418.471C696.868 407.777 696.868 392.191 688.268 381.5C598.694 270.136 497.837 217.861 400.406 217.861C302.977 217.861 202.119 270.136 112.545 381.5Z" fill="#990E0E"/>
</svg>
