<svg width="800" height="800" viewBox="0 0 800 800" fill="none" xmlns="http://www.w3.org/2000/svg">
<path d="M66.6665 66.6667L733.333 733.333" stroke="#990E0E" stroke-width="66.6667" stroke-linecap="round" stroke-linejoin="round"/>
<path d="M223.759 224.087C122.159 293.176 66.6665 400 66.6665 400C66.6665 400 187.879 633.333 400 633.333C468.343 633.333 527.246 609.113 575.703 576.28M366.666 168.607C377.513 167.338 388.626 166.667 400 166.667C612.12 166.667 733.333 400 733.333 400C733.333 400 710.273 444.39 666.666 494.45" stroke="#990E0E" stroke-width="66.6667" stroke-linecap="round" stroke-linejoin="round"/>
<path d="M466.667 474.54C448.973 490.373 425.613 500.003 400 500.003C344.77 500.003 300 455.233 300 400.003C300 372.547 311.064 347.677 328.977 329.606" stroke="#990E0E" stroke-width="66.6667" stroke-linecap="round" stroke-linejoin="round"/>
</svg>
